<svg xmlns="http://www.w3.org/2000/svg" viewBox="0 0 100 100" width="100" height="100">
  <rect width="100" height="100" rx="20" fill="#1CB0F6"/>
  <g transform="translate(15, 20)">
    <path d="M15 0 L85 0 Q90 0 90 5 L90 35 Q90 40 85 40 L15 40 Q10 40 10 35 L10 5 Q10 0 15 0 Z" fill="white" />
    <circle cx="50" cy="20" r="15" fill="white"/>
    <g stroke="#1CB0F6" stroke-width="2">
      <circle cx="50" cy="20" r="10"/>
      <line x1="50" y1="30" x2="50" y2="60"/>
      <line x1="50" y1="50" x2="35" y2="65"/>
      <line x1="50" y1="50" x2="65" y2="65"/>
      <line x1="50" y1="60" x2="40" y2="80"/>
      <line x1="50" y1="60" x2="60" y2="80"/>
    </g>
    <text x="50%" y="80" alignment-baseline="middle" text-anchor="middle" font-size="10" fill="#1CB0F6" font-family="Arial, sans-serif">Bilim AI</text>
  </g>
</svg>
